<?xml version="1.0" standalone="no"?>
<!DOCTYPE svg PUBLIC "-//W3C//DTD SVG 20010904//EN"
 "http://www.w3.org/TR/2001/REC-SVG-20010904/DTD/svg10.dtd">
<svg version="1.0" xmlns="http://www.w3.org/2000/svg"
 width="178.000000pt" height="192.000000pt" viewBox="0 0 178.000000 192.000000"
 preserveAspectRatio="xMidYMid meet">

<g transform="translate(0.000000,192.000000) scale(0.100000,-0.100000)"
fill="#000000" stroke="none">
<path d="M0 960 l0 -960 890 0 890 0 0 960 0 960 -890 0 -890 0 0 -960z m511
670 c6 0 64 14 129 30 101 25 138 30 245 30 107 0 144 -5 245 -30 65 -16 124
-30 129 -30 7 0 11 33 11 87 l0 88 217 -217 218 -218 -69 -69 -69 -70 -84 66
c-58 45 -114 78 -176 104 l-91 37 -150 -74 c-83 -41 -158 -79 -167 -83 -12 -7
-61 13 -179 70 -89 43 -168 79 -176 79 -23 0 -157 -74 -249 -138 l-89 -63 -71
71 -70 70 215 215 215 215 3 -85 c2 -49 7 -85 13 -85z m516 -515 c101 -22 131
-33 205 -78 l87 -52 -89 -89 -89 -89 -130 47 -131 47 -129 -47 -130 -46 -84
88 -85 89 86 52 c63 39 106 57 161 69 42 9 90 20 106 24 52 14 100 11 222 -15z"/>
</g>
</svg>
